<svg width="24" height="24" viewBox="0 0 24 24" fill="none" xmlns="http://www.w3.org/2000/svg">
<path d="M23.7666 9.64963H22.8V9.59984H12V14.3998H18.7818C17.7924 17.1939 15.1338 19.1997 12 19.1997C8.0238 19.1997 4.8 15.9759 4.8 11.9998C4.8 8.02366 8.0238 4.79992 12 4.79992C13.8354 4.79992 15.5052 5.49231 16.7766 6.62329L20.1708 3.22914C18.0276 1.23178 15.1608 0 12 0C5.373 0 0 5.37291 0 11.9998C0 18.6267 5.373 23.9996 12 23.9996C18.627 23.9996 24 18.6267 24 11.9998C24 11.1952 23.9172 10.4098 23.7666 9.64963Z" fill="#FFC107"/>
<path d="M1.38281 6.41449L5.32541 9.30584C6.39221 6.66469 8.97581 4.79992 11.9992 4.79992C13.8346 4.79992 15.5044 5.49231 16.7758 6.62329L20.17 3.22914C18.0268 1.23178 15.16 0 11.9992 0C7.39001 0 3.39281 2.60216 1.38281 6.41449Z" fill="#FF3D00"/>
<path d="M11.9994 23.9991C15.099 23.9991 17.9154 22.8129 20.0448 20.8839L16.3308 17.7412C15.0857 18.6886 13.564 19.2008 11.9994 19.1992C8.87821 19.1992 6.22801 17.209 5.22961 14.4316L1.31641 17.4466C3.30241 21.3327 7.33561 23.9991 11.9994 23.9991Z" fill="#4CAF50"/>
<path d="M23.7666 9.64941H22.8V9.59961H12V14.3995H18.7818C18.3085 15.7294 17.456 16.8914 16.3296 17.7421L16.3314 17.7409L20.0454 20.8836C19.7826 21.1224 24 17.9995 24 11.9996C24 11.195 23.9172 10.4096 23.7666 9.64941Z" fill="#1976D2"/>
</svg>
