<svg width="125" height="70" viewBox="0 0 125 70" fill="none" xmlns="http://www.w3.org/2000/svg">
<path d="M123.456 8.439C121.564 3.31424 116.809 0 111.347 0H0L2.92236 9.27136V9.16808H111.35C113.772 9.16808 114.65 11.0394 114.862 11.6135C115.075 12.1876 115.622 14.1835 113.784 15.754L68.7271 54.2733C68.3717 54.5771 68.0011 54.5558 67.752 54.486C67.5029 54.4161 67.1779 54.2369 67.0381 53.7903L65.1972 47.9517H55.5856L58.2953 56.5456C59.3282 59.8264 61.9194 62.3508 65.2276 63.2986C66.1602 63.5659 67.108 63.6966 68.0527 63.6966C70.4556 63.6966 72.8069 62.849 74.6843 61.242L119.741 22.7227C123.894 19.1715 125.355 13.5668 123.462 8.439H123.456Z" fill="#2451B3"/>
<path d="M77.8435 24.798L35.9887 60.5802C35.6333 60.884 35.2626 60.8627 35.0135 60.7928C34.7644 60.723 34.4394 60.5437 34.2997 60.0972L32.4588 34.4096H22.8472L25.5569 62.8494C26.5897 66.1302 29.181 68.6547 32.4891 69.6025C33.4217 69.8698 34.3695 70.0004 35.3143 70.0004C37.7172 70.0004 40.0684 69.1529 41.9458 67.5459L87.0024 29.0266C88.412 27.8206 89.5117 26.3776 90.2772 24.7949H77.8465L77.8435 24.798Z" fill="#2451B3"/>
<path d="M57.1437 34.5186V25.3535H15.7173L18.1475 34.6249V34.5186H26.1157H38.6344H57.1437Z" fill="#2451B3"/>
<path d="M57.5053 22.6709V13.5059H7.70361L10.626 22.7772V22.6709H20.2042H35.2564H57.5053Z" fill="#2451B3"/>
</svg>
