<svg width="40" height="40" viewBox="0 0 40 40" fill="none" xmlns="http://www.w3.org/2000/svg">
<path d="M23.0329 10.6367L25.4504 2.54883H16.4395L18.857 10.6367H20.3076L20.2636 12.0873H20.7911C21.4065 12.0873 21.89 12.5708 21.89 13.1862C21.89 13.8016 21.4065 14.2851 20.7911 14.2851C20.3955 14.2851 20.0438 14.0653 19.8241 13.7137C19.6922 13.4939 19.3845 13.406 19.1208 13.5378C18.901 13.6697 18.8131 13.9774 18.9449 14.2411C19.3406 14.9005 20.0878 15.2961 20.8351 15.2961C22.0219 15.2961 22.9889 14.329 22.9889 13.1422C22.9889 12.1312 22.2856 11.2961 21.3625 11.0323V10.6367H23.0329ZM19.6482 9.5818L17.846 3.55982H24.0438L22.2416 9.5818H21.4065L21.4504 8.48289C21.4504 8.21916 21.2307 7.95542 20.923 7.95542C20.6592 7.95542 20.3955 8.1752 20.3955 8.48289L20.3515 9.5818H19.6482Z" fill="#FBFFFE"/>
<path d="M36.2199 20.3946L20.088 11.9551C20.0001 11.9111 19.7364 11.8671 19.5606 11.9551L7.47265 18.5045C4.43968 19.3397 1.49463 20.1309 1.49463 20.1309V37.7573H38.6814V20.7902C38.6814 20.7902 37.7144 20.6584 36.2199 20.3946ZM6.37375 36.7023H2.50562V20.9221L6.37375 19.8671V36.7023ZM13.2748 36.7023H7.42869V19.5594L13.2748 17.9331V36.7023ZM13.8023 16.7902C13.7584 16.7902 12.9672 17.01 11.8243 17.3177L19.8243 13.01L32.8353 19.8671C25.5386 18.6803 13.8463 16.7902 13.8023 16.7902ZM37.6265 36.7023H14.3298V17.9331L37.6265 21.6693V36.7023Z" fill="#FBFFFE"/>
<path d="M8.65961 29.1856C8.92335 29.1856 9.18709 28.9658 9.18709 28.6581V26.6801C9.18709 26.3724 8.96731 26.1526 8.65961 26.1526C8.35192 26.1526 8.13214 26.3724 8.13214 26.6801V28.6581C8.13214 28.9658 8.35192 29.1856 8.65961 29.1856ZM5.40687 26.768C5.09917 26.768 4.87939 26.9878 4.87939 27.2955V28.6581C4.87939 28.9658 5.09917 29.1856 5.40687 29.1856C5.6706 29.1856 5.93434 28.9658 5.93434 28.6581V27.2955C5.93434 26.9878 5.71456 26.768 5.40687 26.768ZM35.7365 35.6911C36.0003 35.6911 36.264 35.4713 36.264 35.1636C36.264 34.8559 36.0442 34.6362 35.7365 34.6362C35.6486 34.6362 35.5607 34.5483 35.5607 34.4603V23.9109C35.5607 23.823 35.6486 23.7351 35.7365 23.7351C36.0442 23.7351 36.264 23.5153 36.264 23.2076C36.264 22.8999 36.0442 22.6801 35.7365 22.6801C35.0772 22.6801 34.5058 23.2515 34.5058 23.9109V34.4603C34.5058 35.1197 35.0772 35.6911 35.7365 35.6911ZM25.7146 35.6911C25.9783 35.6911 26.242 35.4713 26.242 35.1636C26.242 34.8559 26.0223 34.6362 25.7146 34.6362C25.5827 34.6362 25.4508 34.5043 25.4508 34.3724V22.5922C25.4508 22.4603 25.5827 22.3285 25.7146 22.3285C26.0223 22.3285 26.242 22.1087 26.242 21.801C26.242 21.4933 26.0223 21.2735 25.7146 21.2735C24.9673 21.2735 24.3959 21.8889 24.3959 22.5922V34.3724C24.3959 35.1197 25.0113 35.6911 25.7146 35.6911ZM22.3299 35.6911C22.5937 35.6911 22.8574 35.4713 22.8574 35.1636C22.8574 34.8559 22.6376 34.6362 22.3299 34.6362C22.1541 34.6362 22.0223 34.5043 22.0223 34.3285V22.0208C22.0223 21.845 22.1541 21.7131 22.3299 21.7131C22.6376 21.7131 22.8574 21.4933 22.8574 21.1856C22.8574 20.8779 22.6376 20.6581 22.3299 20.6581C21.5827 20.6581 20.9673 21.2735 20.9673 22.0208V34.3285C20.9673 35.0757 21.5827 35.6911 22.3299 35.6911ZM18.3299 35.6911C18.6376 35.6911 18.8574 35.4713 18.8574 35.1636C18.8574 34.8559 18.6376 34.6362 18.3299 34.6362C18.1541 34.6362 18.0223 34.4603 18.0223 34.2845V21.4493C18.0223 21.2296 18.1541 21.0977 18.3299 21.0977C18.6376 21.0977 18.8574 20.8779 18.8574 20.5702C18.8574 20.2625 18.6376 20.0428 18.3299 20.0428C17.5827 20.0428 16.9673 20.7021 16.9673 21.4493V34.2845C16.9673 35.0757 17.5827 35.6911 18.3299 35.6911ZM32.6157 35.6911C32.9234 35.6911 33.1431 35.4713 33.1431 35.2076C33.1431 34.8999 32.9234 34.6801 32.6157 34.6801C32.4838 34.6801 32.3959 34.5922 32.3959 34.4603V23.5153C32.3959 23.3834 32.4838 23.2955 32.6157 23.2955C32.9234 23.2955 33.1431 23.0757 33.1431 22.768C33.1431 22.4603 32.9234 22.2406 32.6157 22.2406C31.9124 22.2406 31.3409 22.812 31.3409 23.5153V34.4164C31.3409 35.1197 31.9124 35.6911 32.6157 35.6911ZM29.1431 35.6911C29.4508 35.6911 29.6706 35.4713 29.6706 35.1636C29.6706 34.8559 29.4508 34.6362 29.1431 34.6362C29.0113 34.6362 28.9234 34.5483 28.9234 34.4164V23.1197C28.9234 22.9878 29.0113 22.8999 29.1431 22.8999C29.4508 22.8999 29.6706 22.6801 29.6706 22.3724C29.6706 22.0647 29.4508 21.845 29.1431 21.845C28.4398 21.845 27.8684 22.4164 27.8684 23.1197V34.4164C27.8684 35.1197 28.4398 35.6911 29.1431 35.6911ZM8.39588 14.2406H7.42884V13.2296H6.3739V14.2406H5.36291V15.2955H6.3739V16.2625H7.42884V15.2955H8.39588V14.2406ZM30.286 5.88891H29.275V4.92188H28.2201V5.88891H27.253V6.94385H28.2201V7.95484H29.275V6.94385H30.286V5.88891Z" fill="#FBFFFE"/>
</svg>
