<svg width="16" height="16" viewBox="0 0 16 16" fill="none" xmlns="http://www.w3.org/2000/svg">
<path d="M8 5.33398C9.10457 5.33398 10 4.43855 10 3.33398C10 2.22941 9.10457 1.33398 8 1.33398C6.89543 1.33398 6 2.22941 6 3.33398C6 4.43855 6.89543 5.33398 8 5.33398Z" stroke="#242423" stroke-linecap="round" stroke-linejoin="round"/>
<path d="M4.33315 5.33398C4.04465 5.33698 3.76491 5.43347 3.53592 5.60897C3.30692 5.78447 3.14103 6.02952 3.06315 6.30732L1.39982 12.334C1.34942 12.529 1.34388 12.733 1.38361 12.9305C1.42334 13.128 1.50731 13.3139 1.62921 13.4743C1.75111 13.6347 1.90777 13.7654 2.08742 13.8566C2.26708 13.9477 2.46506 13.997 2.66648 14.0007H13.3332C13.5389 14.0006 13.7419 13.9529 13.9262 13.8613C14.1104 13.7697 14.271 13.6367 14.3953 13.4727C14.5196 13.3087 14.6042 13.1181 14.6426 12.9159C14.681 12.7138 14.672 12.5055 14.6165 12.3073L12.9332 6.33398C12.8597 6.04959 12.6945 5.7974 12.463 5.61657C12.2315 5.43575 11.9469 5.33641 11.6532 5.33398H4.33315Z" stroke="#242423" stroke-linecap="round" stroke-linejoin="round"/>
</svg>
