<svg width="28" height="40" viewBox="0 0 28 40" fill="none" xmlns="http://www.w3.org/2000/svg">
<path d="M0.479739 18.8021C0.050224 19.4797 -0.09854 20.2955 0.0645136 21.0792C0.227567 21.8629 0.689831 22.5539 1.35477 23.0079L2.60605 23.88C3.24054 24.2055 3.80143 24.6558 4.2545 25.2033C4.70757 25.7507 5.04331 26.384 5.24124 27.0643C5.83228 28.9179 6.56748 31.2257 8.54243 32.5171C9.34827 33.1529 10.3422 33.7343 10.3257 34.865L10.3242 39.285C10.3252 39.4742 10.4014 39.6554 10.5363 39.7893C10.6713 39.9232 10.8541 39.9989 11.045 40H23.1398C23.3309 40 23.5143 39.9247 23.6494 39.7908C23.7846 39.6568 23.8605 39.4752 23.8605 39.2857V35.6614C23.8559 35.2015 24.0086 34.7536 24.2937 34.3907C26.5715 31.5819 27.8716 28.1183 28 24.5171V18.8707C27.9929 18.3387 27.8426 17.8182 27.5644 17.363C27.2863 16.9079 26.8905 16.5347 26.418 16.2819C25.9455 16.0292 25.4135 15.9062 24.8769 15.9256C24.3404 15.9449 23.8188 16.106 23.3661 16.3921C23.247 15.9429 23.0239 15.5273 22.7144 15.1784C22.4049 14.8296 22.0176 14.5571 21.5832 14.3825C21.1488 14.208 20.6793 14.1363 20.2121 14.173C19.7448 14.2098 19.2926 14.354 18.8915 14.5943C18.7918 13.8841 18.4364 13.2336 17.8907 12.7627C17.3451 12.2919 16.6461 12.0324 15.9225 12.0321C15.3769 12.0307 14.8414 12.1785 14.375 12.4593V7.93929C14.3737 7.53446 14.289 7.13416 14.126 6.76296C13.963 6.39176 13.7251 6.05748 13.4271 5.78064C13.129 5.5038 12.777 5.29023 12.3927 5.15304C12.0083 5.01586 11.5998 4.95794 11.192 4.98286C10.4231 5.04269 9.70608 5.39041 9.18661 5.95535C8.66714 6.52029 8.38423 7.26006 8.39539 8.02429V20.0071C7.19865 19.2163 5.97855 18.4607 4.73669 17.7414C4.02723 17.3347 3.18575 17.2181 2.39091 17.4163C1.59607 17.6145 0.910491 18.1111 0.479739 18.8021ZM8.69668 21.9507C8.8048 22.0254 8.93141 22.0696 9.06293 22.0784C9.19445 22.0872 9.3259 22.0604 9.44319 22.0008C9.56048 21.9411 9.65917 21.851 9.72867 21.74C9.79817 21.629 9.83586 21.5013 9.83768 21.3707V8.02429C9.82678 7.81975 9.85729 7.61512 9.92742 7.42246C9.99755 7.22979 10.1059 7.05298 10.246 6.90244C10.3862 6.7519 10.5553 6.63068 10.7435 6.54592C10.9316 6.46116 11.135 6.41457 11.3416 6.40889C11.5482 6.40322 11.7539 6.43858 11.9465 6.51289C12.1391 6.5872 12.3147 6.69895 12.463 6.84157C12.6114 6.98418 12.7294 7.15478 12.8102 7.3433C12.891 7.53183 12.9329 7.73447 12.9334 7.93929V21.3C12.9334 21.4894 13.0094 21.6711 13.1446 21.8051C13.2797 21.939 13.4631 22.0143 13.6542 22.0143C13.8454 22.0143 14.0287 21.939 14.1639 21.8051C14.2991 21.6711 14.375 21.4894 14.375 21.3V14.9943C14.375 14.5866 14.5384 14.1956 14.8293 13.9074C15.1202 13.6191 15.5148 13.4571 15.9261 13.4571C16.3375 13.4571 16.7321 13.6191 17.023 13.9074C17.3139 14.1956 17.4773 14.5866 17.4773 14.9943V21.3C17.4773 21.4894 17.5532 21.6711 17.6884 21.8051C17.8236 21.939 18.0069 22.0143 18.1981 22.0143C18.3892 22.0143 18.5726 21.939 18.7077 21.8051C18.8429 21.6711 18.9188 21.4894 18.9188 21.3V17.1129C18.9188 16.706 19.0819 16.3159 19.3722 16.0282C19.6625 15.7405 20.0562 15.5789 20.4667 15.5789C20.8772 15.5789 21.271 15.7405 21.5612 16.0282C21.8515 16.3159 22.0146 16.706 22.0146 17.1129V21.3C22.0146 21.4894 22.0905 21.6711 22.2257 21.8051C22.3609 21.939 22.5442 22.0143 22.7354 22.0143C22.9266 22.0143 23.1099 21.939 23.2451 21.8051C23.3802 21.6711 23.4562 21.4894 23.4562 21.3V18.8707C23.4562 18.463 23.6196 18.0721 23.9105 17.7838C24.2014 17.4955 24.5959 17.3336 25.0073 17.3336C25.4187 17.3336 25.8132 17.4955 26.1041 17.7838C26.395 18.0721 26.5584 18.463 26.5584 18.8707L26.5592 24.4893C26.4364 27.7747 25.2479 30.9334 23.17 33.4964C22.0816 34.6407 22.4874 37.1457 22.4175 38.5714H11.7672V34.8657C11.7686 34.4252 11.6807 33.9888 11.5087 33.5826C11.3367 33.1763 11.0842 32.8084 10.766 32.5007C10.326 32.0836 9.85763 31.697 9.36412 31.3436C7.78777 30.3129 7.16573 28.3579 6.61289 26.6229C6.36483 25.7897 5.9534 25.0133 5.40215 24.3379C4.8509 23.6626 4.17066 23.1016 3.40036 22.6871L2.17863 21.8357C1.81746 21.5898 1.56641 21.2149 1.47812 20.7895C1.38983 20.3642 1.47117 19.9215 1.70507 19.5543C1.94115 19.1829 2.31227 18.9158 2.74162 18.8081C3.17096 18.7004 3.62566 18.7604 4.01158 18.9757C5.85679 20.0514 7.43315 21.0521 8.69668 21.9507ZM12.106 2.58071V0.714286C12.106 0.524845 12.03 0.343164 11.8949 0.20921C11.7597 0.075255 11.5764 0 11.3852 0C11.194 0 11.0107 0.075255 10.8755 0.20921C10.7404 0.343164 10.6644 0.524845 10.6644 0.714286V2.58071C10.6644 2.77015 10.7404 2.95184 10.8755 3.08579C11.0107 3.21974 11.194 3.295 11.3852 3.295C11.5764 3.295 11.7597 3.21974 11.8949 3.08579C12.03 2.95184 12.106 2.77015 12.106 2.58071ZM16.1222 2.27714L14.7909 3.59714C14.7221 3.66303 14.6672 3.74185 14.6294 3.829C14.5916 3.91614 14.5717 4.00987 14.5709 4.10471C14.5701 4.19956 14.5883 4.29361 14.6245 4.3814C14.6608 4.46918 14.7143 4.54893 14.782 4.616C14.8497 4.68306 14.9301 4.7361 15.0187 4.77202C15.1073 4.80793 15.2022 4.826 15.2979 4.82518C15.3936 4.82435 15.4882 4.80465 15.5761 4.76722C15.6641 4.72978 15.7436 4.67536 15.8101 4.60714L17.1414 3.28714C17.2727 3.15243 17.3453 2.972 17.3437 2.78471C17.342 2.59743 17.2662 2.41828 17.1326 2.28584C16.999 2.15341 16.8182 2.07829 16.6292 2.07666C16.4402 2.07503 16.2581 2.14703 16.1222 2.27714Z" fill="#2451B3"/>
</svg>
