<svg width="48" height="30" viewBox="0 0 48 30" fill="none" xmlns="http://www.w3.org/2000/svg">
<path d="M44.106 12.718L42.8778 7.80547C43.2136 7.73414 43.4655 7.43625 43.4655 7.07935V6.28728C43.4655 4.56753 42.0664 3.16847 40.3467 3.16847H34.7527V1.53468C34.7527 0.688418 34.0643 0 33.218 0H4.70295C3.8567 0 3.16828 0.688418 3.16828 1.53468V15.0001C3.16828 15.1971 3.24652 15.386 3.38578 15.5252C3.52505 15.6645 3.71393 15.7427 3.91088 15.7427C4.10784 15.7427 4.29672 15.6645 4.43599 15.5252C4.57525 15.386 4.65349 15.1971 4.65349 15.0001V1.53468C4.65349 1.50735 4.67563 1.48521 4.70295 1.48521H33.2179C33.2453 1.48521 33.2674 1.50735 33.2674 1.53468V15.0003C33.2674 15.1973 33.3456 15.3862 33.4849 15.5254C33.6242 15.6647 33.813 15.7429 34.01 15.7429C34.2069 15.7429 34.3958 15.6647 34.5351 15.5254C34.6744 15.3862 34.7526 15.1973 34.7526 15.0003V14.1585H43.5124L43.5144 14.1587L43.5164 14.1586C44.5943 14.1593 45.5096 14.8668 45.824 15.8418H43.5149C43.318 15.8418 43.1291 15.92 42.9898 16.0593C42.8506 16.1985 42.7723 16.3874 42.7723 16.5844V18.1685C42.7723 19.4515 43.8161 20.4953 45.0991 20.4953H45.9407V23.7626H43.999C43.3612 21.9208 41.6104 20.5942 39.5545 20.5942C37.4986 20.5942 35.7477 21.9208 35.11 23.7626H34.7524V18.1684C34.7524 17.9715 34.6742 17.7826 34.5349 17.6433C34.3956 17.5041 34.2068 17.4258 34.0098 17.4258C33.8129 17.4258 33.624 17.5041 33.4847 17.6433C33.3454 17.7826 33.2672 17.9715 33.2672 18.1684V23.7624H17.8604C17.2226 21.9206 15.4718 20.594 13.4159 20.594C11.36 20.594 9.60914 21.9206 8.97139 23.7624H4.70295C4.68984 23.7624 4.67725 23.7572 4.66798 23.7479C4.6587 23.7386 4.65349 23.726 4.65349 23.7129V22.0792H7.87133C8.06828 22.0792 8.25716 22.001 8.39643 21.8617C8.53569 21.7224 8.61393 21.5336 8.61393 21.3366C8.61393 21.1397 8.53569 20.9508 8.39643 20.8115C8.25716 20.6722 8.06828 20.594 7.87133 20.594H0.742606C0.545655 20.594 0.35677 20.6722 0.217504 20.8115C0.0782386 20.9508 0 21.1397 0 21.3366C0 21.5336 0.0782386 21.7224 0.217504 21.8617C0.35677 22.001 0.545655 22.0792 0.742606 22.0792H3.16837V23.7129C3.16837 24.5592 3.85679 25.2476 4.70305 25.2476H8.71425C8.71406 25.2641 8.71295 25.2805 8.71295 25.297C8.71295 27.8903 10.8228 30 13.4159 30C16.0091 30 18.1189 27.8903 18.1189 25.297C18.1189 25.2804 18.1177 25.2641 18.1176 25.2476H34.8528C34.8526 25.2641 34.8515 25.2805 34.8515 25.297C34.8515 27.8903 36.9613 30 39.5545 30C42.1476 30 44.2574 27.8903 44.2574 25.297C44.2574 25.2804 44.2563 25.2641 44.2561 25.2476H46.6833C46.8802 25.2476 47.0691 25.1693 47.2084 25.0301C47.3477 24.8908 47.4259 24.7019 47.4259 24.505V16.5842C47.426 14.6286 45.9831 13.0038 44.106 12.718ZM34.7527 4.65358H40.3467C41.2476 4.65358 41.9804 5.38646 41.9804 6.28728V6.33674H34.7527V4.65358ZM34.7527 12.6734V7.82186H41.3511L42.564 12.6734H34.7527ZM13.4159 28.5151C11.6416 28.5151 10.1981 27.0716 10.1981 25.2972C10.1981 23.5228 11.6416 22.0794 13.4159 22.0794C15.1902 22.0794 16.6337 23.5228 16.6337 25.2972C16.6337 27.0716 15.1902 28.5151 13.4159 28.5151ZM39.5547 28.5151C37.7804 28.5151 36.3368 27.0716 36.3368 25.2972C36.3368 23.5228 37.7804 22.0794 39.5547 22.0794C41.329 22.0794 42.7725 23.5228 42.7725 25.2972C42.7725 27.0716 41.329 28.5151 39.5547 28.5151ZM45.9409 19.01H45.0992C44.6352 19.01 44.2576 18.6325 44.2576 18.1684V17.3268H45.9408V19.01H45.9409Z" fill="#2451B3"/>
<path d="M13.4158 23.7627C12.5695 23.7627 11.8811 24.4511 11.8811 25.2973C11.8811 26.1436 12.5695 26.832 13.4158 26.832C14.262 26.832 14.9504 26.1436 14.9504 25.2973C14.9504 24.4511 14.262 23.7627 13.4158 23.7627ZM39.5545 23.7627C38.7083 23.7627 38.0198 24.4511 38.0198 25.2973C38.0198 26.1436 38.7083 26.832 39.5545 26.832C40.4008 26.832 41.0892 26.1436 41.0892 25.2973C41.0892 24.4511 40.4008 23.7627 39.5545 23.7627ZM30.8416 20.5944H19.7524C19.5555 20.5944 19.3666 20.6726 19.2273 20.8119C19.088 20.9512 19.0098 21.14 19.0098 21.337C19.0098 21.5339 19.088 21.7228 19.2273 21.8621C19.3666 22.0014 19.5555 22.0796 19.7524 22.0796H30.8416C31.0385 22.0796 31.2274 22.0014 31.3667 21.8621C31.5059 21.7228 31.5842 21.5339 31.5842 21.337C31.5842 21.14 31.5059 20.9512 31.3667 20.8119C31.2274 20.6726 31.0385 20.5944 30.8416 20.5944ZM11.8316 17.426H2.32659C2.12964 17.426 1.94075 17.5043 1.80149 17.6435C1.66222 17.7828 1.58398 17.9717 1.58398 18.1686C1.58398 18.3656 1.66222 18.5545 1.80149 18.6937C1.94075 18.833 2.12964 18.9112 2.32659 18.9112H11.8316C12.0286 18.9112 12.2174 18.833 12.3567 18.6937C12.496 18.5545 12.5742 18.3656 12.5742 18.1686C12.5742 17.9717 12.496 17.7828 12.3567 17.6435C12.2174 17.5043 12.0286 17.426 11.8316 17.426ZM25.8221 7.34633C25.6828 7.2071 25.4939 7.12889 25.297 7.12891C25.1001 7.12892 24.9112 7.20717 24.772 7.34642L18.1683 13.95L14.7329 10.5147C14.664 10.4457 14.5821 10.391 14.492 10.3537C14.4019 10.3164 14.3054 10.2972 14.2079 10.2972C14.1104 10.2972 14.0138 10.3164 13.9237 10.3537C13.8336 10.391 13.7518 10.4457 13.6828 10.5147C13.6138 10.5837 13.5591 10.6655 13.5218 10.7556C13.4845 10.8457 13.4653 10.9423 13.4653 11.0398C13.4653 11.1373 13.4845 11.2338 13.5218 11.3239C13.5591 11.414 13.6138 11.4959 13.6828 11.5648L17.6432 15.5253C17.7882 15.6703 17.9783 15.7428 18.1683 15.7428C18.3582 15.7428 18.5484 15.6703 18.6933 15.5253L25.822 8.39656C25.9613 8.25729 26.0395 8.06841 26.0395 7.87146C26.0395 7.67451 25.9613 7.48562 25.8221 7.34633Z" fill="#2451B3"/>
</svg>
